<?xml version="1.0" standalone="no"?>
<!DOCTYPE svg PUBLIC "-//W3C//DTD SVG 20010904//EN"
 "http://www.w3.org/TR/2001/REC-SVG-20010904/DTD/svg10.dtd">
<svg version="1.0" xmlns="http://www.w3.org/2000/svg"
 width="920.000000pt" height="920.000000pt" viewBox="0 0 920.000000 920.000000"
 preserveAspectRatio="xMidYMid meet">

<g transform="translate(0.000000,920.000000) scale(0.100000,-0.100000)"
fill="#000000" stroke="none">
<path d="M4470 8814 c-50 -10 -154 -46 -204 -71 -48 -24 -330 -182 -1236 -691
-201 -113 -435 -244 -520 -292 -85 -48 -335 -188 -555 -312 -220 -124 -507
-285 -637 -358 -130 -73 -264 -155 -297 -182 -118 -95 -203 -226 -253 -388
l-23 -75 -3 -1780 c-2 -1204 0 -1810 7 -1872 23 -200 121 -382 269 -498 64
-51 217 -140 977 -565 160 -89 360 -202 445 -250 85 -48 358 -201 605 -340
248 -139 500 -280 560 -315 366 -208 629 -353 690 -381 192 -88 428 -86 623 6
34 16 228 122 430 236 202 114 495 279 652 367 157 88 319 179 360 202 41 24
350 197 685 385 336 189 714 401 840 472 127 71 258 152 292 179 117 92 215
244 259 399 18 62 19 150 22 1855 2 1226 -1 1816 -8 1871 -27 210 -140 402
-303 518 -34 24 -161 99 -282 166 -121 68 -269 151 -330 185 -60 34 -204 115
-320 180 -115 65 -280 157 -365 205 -85 48 -393 221 -685 385 -291 163 -600
337 -685 385 -666 377 -652 370 -855 375 -71 2 -141 1 -155 -1z m281 -2004
c531 -38 1004 -247 1381 -608 109 -105 228 -242 228 -263 0 -10 -748 -455
-802 -477 -4 -2 -43 29 -86 68 -172 160 -383 270 -614 322 -132 29 -368 32
-495 5 -262 -56 -478 -172 -663 -357 -328 -328 -453 -787 -334 -1230 61 -231
223 -487 403 -637 518 -433 1223 -412 1719 51 52 49 67 58 80 49 9 -5 150 -87
312 -180 162 -94 337 -195 387 -224 51 -30 93 -60 93 -68 0 -20 -124 -162
-227 -262 -293 -282 -664 -480 -1053 -563 -340 -73 -706 -66 -1042 19 -541
137 -1043 511 -1337 999 -382 631 -420 1435 -101 2104 214 449 576 813 1025
1032 275 135 560 208 870 223 33 2 74 4 90 5 17 1 91 -3 166 -8z"/>
</g>
</svg>
