<?xml version="1.0" standalone="no"?>
<!DOCTYPE svg PUBLIC "-//W3C//DTD SVG 20010904//EN"
 "http://www.w3.org/TR/2001/REC-SVG-20010904/DTD/svg10.dtd">
<svg version="1.0" xmlns="http://www.w3.org/2000/svg"
 width="920.000000pt" height="920.000000pt" viewBox="0 0 920.000000 920.000000"
 preserveAspectRatio="xMidYMid meet">

<g transform="translate(0.000000,920.000000) scale(0.100000,-0.100000)"
fill="#000000" stroke="none">
<path d="M4485 8821 c-74 -12 -162 -39 -220 -68 -53 -27 -3006 -1684 -3139
-1762 -142 -83 -264 -217 -325 -356 -12 -27 -31 -86 -42 -130 -18 -77 -19
-137 -19 -1905 0 -1768 1 -1828 19 -1905 43 -176 142 -328 282 -430 25 -19
349 -205 720 -413 371 -208 1077 -605 1569 -882 492 -277 922 -516 956 -531
105 -48 177 -63 314 -63 152 0 241 22 375 93 50 26 509 283 1020 571 1072 603
1101 619 1655 929 474 266 504 284 583 360 103 98 172 220 208 366 18 77 19
137 19 1905 0 1791 -1 1827 -20 1908 -45 186 -164 355 -321 455 -30 18 -346
198 -704 399 -357 201 -1032 580 -1500 843 -1020 573 -1011 568 -1105 595 -84
23 -247 33 -325 21z m336 -2021 c564 -57 1103 -341 1460 -769 44 -52 78 -95
77 -97 -2 -1 -172 -99 -378 -219 -206 -119 -387 -224 -402 -233 -27 -15 -27
-15 -97 51 -183 173 -416 290 -661 332 -121 21 -326 21 -445 0 -525 -93 -947
-516 -1041 -1044 -20 -115 -20 -322 1 -441 113 -651 711 -1113 1370 -1059 114
10 263 43 353 78 148 59 309 160 418 263 39 37 73 68 76 68 4 0 799 -458 806
-464 1 -2 -34 -46 -78 -99 -288 -344 -696 -597 -1151 -713 -355 -90 -763 -84
-1119 17 -618 175 -1116 590 -1395 1164 -368 756 -282 1625 228 2304 85 113
269 302 382 391 451 357 1029 527 1596 470z m1989 -1465 l0 -185 180 0 180 0
0 185 0 185 190 0 190 0 0 -185 0 -186 180 3 180 3 0 -187 0 -188 -180 0 -180
0 0 -180 0 -180 180 0 179 0 3 -185 3 -185 -182 0 -183 0 0 -185 0 -185 -190
0 -190 0 0 185 0 185 -180 0 -180 0 0 -185 0 -185 -185 0 -185 0 0 185 0 185
-185 0 -185 0 0 185 0 185 185 0 185 0 0 180 0 180 -185 0 -185 0 0 185 0 185
185 0 185 0 0 185 0 185 185 0 185 0 0 -185z"/>
<path d="M6810 4600 l0 -180 180 0 180 0 0 180 0 180 -180 0 -180 0 0 -180z"/>
</g>
</svg>
