<?xml version="1.0" standalone="no"?>
<!DOCTYPE svg PUBLIC "-//W3C//DTD SVG 20010904//EN"
 "http://www.w3.org/TR/2001/REC-SVG-20010904/DTD/svg10.dtd">
<svg version="1.0" xmlns="http://www.w3.org/2000/svg"
 width="516.000000pt" height="516.000000pt" viewBox="0 0 516.000000 516.000000"
 preserveAspectRatio="xMidYMid meet">

<g transform="translate(0.000000,516.000000) scale(0.100000,-0.100000)"
fill="#000000" stroke="none">
<path d="M2240 4246 c0 -6 117 -260 155 -336 20 -41 73 -135 118 -208 44 -73
78 -134 75 -137 -6 -6 -162 46 -208 70 -19 10 -95 54 -168 98 -72 44 -134 78
-136 76 -2 -2 1 -35 6 -72 5 -38 8 -72 6 -77 -2 -4 -86 28 -187 71 -101 43
-187 79 -192 79 -4 0 5 -39 22 -87 16 -48 29 -88 29 -90 0 -7 -76 -2 -239 17
-96 11 -176 19 -177 17 -2 -2 24 -40 57 -86 34 -45 60 -83 58 -85 -2 -2 -94
-20 -204 -41 -110 -20 -202 -39 -204 -41 -2 -2 9 -14 25 -26 48 -38 104 -90
104 -97 0 -4 -70 -54 -155 -112 -85 -57 -155 -107 -155 -110 0 -3 41 -18 90
-33 l91 -27 -40 -57 c-22 -31 -76 -106 -120 -167 -43 -60 -77 -113 -74 -117 2
-5 47 -8 99 -8 93 0 94 0 89 -22 -52 -221 -80 -368 -71 -368 6 0 45 16 85 35
41 20 75 34 77 33 1 -2 24 -80 49 -173 25 -94 48 -177 51 -185 4 -11 19 0 55
38 l49 54 38 -31 c121 -102 209 -165 304 -220 138 -79 406 -210 628 -306 620
-270 873 -487 973 -835 14 -47 28 -107 32 -133 11 -72 25 -56 26 31 4 221 -8
290 -73 421 -63 127 -109 192 -200 287 -163 170 -322 276 -631 420 -249 117
-364 178 -492 263 -264 176 -434 364 -506 562 -49 135 -38 286 33 422 56 107
133 183 240 235 121 59 188 72 374 73 185 2 264 -14 417 -83 250 -112 401
-241 590 -502 56 -77 131 -140 312 -261 206 -139 240 -167 316 -263 120 -150
147 -254 95 -367 l-26 -58 38 5 c21 3 78 25 127 49 160 79 279 225 280 343 0
49 0 50 -52 80 -156 93 -323 277 -323 355 0 26 32 43 65 35 14 -3 25 -3 25 1
0 4 -25 34 -55 68 -30 34 -76 99 -102 145 -157 274 -200 327 -435 537 -150
135 -353 348 -514 540 -32 39 -67 79 -76 89 -10 11 -52 63 -95 117 -42 54 -79
97 -80 95 -5 -4 87 -217 132 -305 50 -100 137 -241 201 -325 56 -73 62 -107
12 -59 -143 134 -438 469 -577 656 -66 88 -81 105 -81 93z m1274 -1386 c47
-60 82 -110 77 -110 -15 0 -113 79 -153 124 -38 41 -49 80 -25 89 6 3 13 6 14
6 1 1 40 -48 87 -109z"/>
</g>
</svg>
